<?xml version="1.0" encoding="UTF-8"?>
<svg xmlns="http://www.w3.org/2000/svg" width="1440" height="900" viewBox="0 0 1440 900">
  <defs>
    <linearGradient id="bg" x1="0" y1="0" x2="1" y2="1">
      <stop offset="0%" stop-color="#0B0B0F"/>
      <stop offset="60%" stop-color="#12131A"/>
      <stop offset="100%" stop-color="#0D0F14"/>
    </linearGradient>
    <linearGradient id="neon" x1="0" y1="0" x2="1" y2="0">
      <stop offset="0%" stop-color="#00F5D4"/>
      <stop offset="100%" stop-color="#00C2FF"/>
    </linearGradient>
    <linearGradient id="accent" x1="0" y1="0" x2="0" y2="1">
      <stop offset="0%" stop-color="#FFB86B"/>
      <stop offset="100%" stop-color="#FF6A88"/>
    </linearGradient>
    <linearGradient id="glass" x1="0" y1="0" x2="1" y2="1">
      <stop offset="0%" stop-color="#1B1E2B" stop-opacity="0.9"/>
      <stop offset="100%" stop-color="#12141C" stop-opacity="0.9"/>
    </linearGradient>
    <style>
      .sans { font-family: 'Sora', 'Space Grotesk', 'Arial', sans-serif; fill: #F5F5F7; }
      .muted { fill: #B6B6C0; }
      .chip { fill: #0F1117; stroke: #242838; stroke-width: 1; }
      .card { fill: url(#glass); stroke: #2A2F44; stroke-width: 1; }
      .border { stroke: #2A2F44; stroke-width: 1; fill: none; }
      .btn { fill: url(#neon); }
      .btnText { fill: #0B0B0F; font-weight: 700; }
      .ghost { fill: #0F1117; stroke: #2A2F44; stroke-width: 1; }
      .tiny { font-size: 12px; letter-spacing: 1.8px; }
    </style>
  </defs>

  <rect x="0" y="0" width="1440" height="900" fill="url(#bg)"/>

  <!-- diagonal accent -->
  <path d="M 980 -40 L 1500 320 L 1500 -40 Z" fill="url(#accent)" opacity="0.18"/>
  <path d="M -60 620 L 520 980 L -60 980 Z" fill="url(#neon)" opacity="0.08"/>

  <!-- top nav -->
  <text x="80" y="70" class="sans" font-size="18" font-weight="700">Glow’d Up Booking</text>
  <text x="1120" y="70" class="sans muted" font-size="14">Pricing</text>
  <text x="1200" y="70" class="sans muted" font-size="14">Log in</text>
  <rect x="1280" y="46" rx="18" ry="18" width="110" height="36" class="btn"/>
  <text x="1305" y="70" class="sans btnText" font-size="14">Start Free</text>

  <!-- hero chip -->
  <rect x="80" y="120" rx="14" ry="14" width="360" height="32" class="chip"/>
  <text x="98" y="142" class="sans tiny" fill="#7EF9FF">BUILT FOR BARBERS · STYLISTS · TATTOO PROS</text>

  <!-- hero headline -->
  <text x="80" y="225" class="sans" font-size="56" font-weight="800">Modern booking</text>
  <text x="80" y="290" class="sans" font-size="56" font-weight="800">for modern pros.</text>
  <text x="80" y="340" class="sans muted" font-size="18">Fast links, instant deposits, and a clean pro dashboard</text>
  <text x="80" y="368" class="sans muted" font-size="18">that feels premium on day one.</text>

  <!-- hero buttons -->
  <rect x="80" y="405" rx="22" ry="22" width="160" height="44" class="btn"/>
  <text x="110" y="433" class="sans btnText" font-size="16">Start Free</text>
  <rect x="255" y="405" rx="22" ry="22" width="170" height="44" class="ghost"/>
  <text x="295" y="433" class="sans" font-size="16">See Plans</text>

  <text x="80" y="472" class="sans muted" font-size="13">Stripe-secured payments · No-show protection · Keep your clients</text>

  <!-- right hero panel -->
  <rect x="700" y="140" rx="22" ry="22" width="640" height="360" class="card"/>
  <rect x="740" y="178" rx="10" ry="10" width="200" height="26" fill="#11131B" stroke="#273047"/>
  <text x="752" y="196" class="sans" font-size="12" fill="#7EF9FF">TODAY’S BOOKINGS</text>

  <rect x="740" y="220" rx="14" ry="14" width="560" height="66" fill="#10131C" stroke="#273047"/>
  <rect x="740" y="296" rx="14" ry="14" width="560" height="66" fill="#10131C" stroke="#273047"/>
  <rect x="740" y="372" rx="14" ry="14" width="560" height="66" fill="#10131C" stroke="#273047"/>

  <circle cx="775" cy="253" r="18" fill="#1E2334" stroke="#2A2F44"/>
  <text x="805" y="258" class="sans" font-size="14">Avery P. · 3:30 PM</text>
  <text x="805" y="280" class="sans muted" font-size="12">Lash Fill · $95 · Deposit captured</text>

  <circle cx="775" cy="329" r="18" fill="#1E2334" stroke="#2A2F44"/>
  <text x="805" y="334" class="sans" font-size="14">Jordan S. · 5:00 PM</text>
  <text x="805" y="356" class="sans muted" font-size="12">Barber Cut · $45 · Reminder sent</text>

  <circle cx="775" cy="405" r="18" fill="#1E2334" stroke="#2A2F44"/>
  <text x="805" y="410" class="sans" font-size="14">Nia T. · 6:15 PM</text>
  <text x="805" y="432" class="sans muted" font-size="12">Gel Set · $70 · Confirmed</text>

  <!-- feature strip -->
  <rect x="80" y="520" rx="18" ry="18" width="400" height="130" class="card"/>
  <rect x="520" y="520" rx="18" ry="18" width="400" height="130" class="card"/>
  <rect x="960" y="520" rx="18" ry="18" width="400" height="130" class="card"/>

  <text x="110" y="560" class="sans" font-size="16" font-weight="700">Deposit-first checkout</text>
  <text x="110" y="586" class="sans muted" font-size="13">Reduce no-shows and protect your time.</text>

  <text x="550" y="560" class="sans" font-size="16" font-weight="700">Client reminders</text>
  <text x="550" y="586" class="sans muted" font-size="13">Automated confirmations + updates.</text>

  <text x="990" y="560" class="sans" font-size="16" font-weight="700">Studio‑grade dashboard</text>
  <text x="990" y="586" class="sans muted" font-size="13">Appointments, payouts, and growth tools.</text>

  <!-- pricing preview -->
  <text x="80" y="705" class="sans" font-size="30" font-weight="800">Plans that scale with you</text>
  <text x="80" y="735" class="sans muted" font-size="14">Start with free. Go pro when you’re ready.</text>

  <rect x="80" y="760" rx="16" ry="16" width="280" height="120" class="card"/>
  <rect x="390" y="760" rx="16" ry="16" width="280" height="120" class="card"/>
  <rect x="700" y="760" rx="16" ry="16" width="280" height="120" class="card"/>
  <rect x="1010" y="760" rx="16" ry="16" width="350" height="120" fill="#0F1117" stroke="#2A2F44"/>

  <text x="110" y="795" class="sans" font-size="14" font-weight="700">Starter</text>
  <text x="110" y="825" class="sans" font-size="22" font-weight="800">$19</text>
  <text x="110" y="848" class="sans muted" font-size="12">Booking link + deposits</text>

  <text x="420" y="795" class="sans" font-size="14" font-weight="700">Pro</text>
  <text x="420" y="825" class="sans" font-size="22" font-weight="800">$39</text>
  <text x="420" y="848" class="sans muted" font-size="12">Client management</text>

  <text x="730" y="795" class="sans" font-size="14" font-weight="700">Elite</text>
  <text x="730" y="825" class="sans" font-size="22" font-weight="800">$79</text>
  <text x="730" y="848" class="sans muted" font-size="12">Payouts + analytics</text>

  <text x="1040" y="795" class="sans" font-size="14" font-weight="700">Founder</text>
  <text x="1040" y="825" class="sans" font-size="22" font-weight="800">$299 / year</text>
  <text x="1040" y="848" class="sans muted" font-size="12">Limited spots · Lifetime perks</text>
</svg>
